<svg  viewBox="0 0 291 197" fill="none" xmlns="http://www.w3.org/2000/svg" id="svg">
<path fill-rule="evenodd" clip-rule="evenodd" d="M151.234 0.333054C160.065 0.533319 171.805 1.43451 177.324 2.23557C182.843 3.13676 192.476 5.13942 198.698 6.74154C204.819 8.44379 213.348 11.1474 217.463 12.7495C221.577 14.3516 228.902 17.7561 233.819 20.1593C238.635 22.5625 246.161 27.0684 250.577 30.2727C254.992 33.3768 261.715 38.9842 265.428 42.589C269.241 46.2939 274.86 53.1029 278.071 57.8091C281.182 62.5154 284.995 69.6248 286.5 73.6301C288.005 77.5352 289.711 84.144 290.313 88.0491C290.915 92.0544 291.216 98.9636 290.815 103.369C290.514 107.775 289.109 114.985 287.604 119.391C286.199 123.796 284.293 128.703 283.49 130.405C282.587 132.107 279.576 136.714 276.767 140.819C273.957 144.824 268.237 151.433 264.123 155.338C260.009 159.243 252.784 165.051 248.068 168.155C243.352 171.259 236.227 175.365 232.213 177.367C228.3 179.37 221.577 182.274 217.463 183.976C213.348 185.678 204.819 188.282 198.598 189.884C192.476 191.586 182.442 193.689 176.321 194.59C168.695 195.792 159.362 196.393 146.217 196.393C135.38 196.393 123.238 195.892 118.12 195.091C113.103 194.39 104.775 192.387 99.5566 190.785C94.3386 189.083 86.4113 185.979 81.9961 183.676C77.5809 181.473 71.9615 178.369 69.4529 176.666C66.9443 174.964 62.5291 171.56 59.5187 169.056C56.6087 166.553 52.0931 161.747 49.6848 158.442C47.1762 155.138 43.8648 149.931 42.3596 146.927C40.8544 143.923 38.6468 138.216 37.4427 134.411C36.1382 130.305 35.0344 123.296 34.7334 117.388C34.332 110.712 34.633 104.705 35.6365 99.3641C36.4392 94.9583 38.3458 88.1493 39.851 84.3442C41.3562 80.5392 44.9686 73.7302 47.8786 69.3244C50.6883 64.9185 56.2073 58.2097 60.0204 54.4046C63.8336 50.5996 69.7539 45.4928 73.1657 42.8894C76.5774 40.3861 83.702 35.5797 89.0203 32.2753C94.2382 28.971 98.5531 25.967 98.5531 25.4663C98.5531 25.0658 97.349 25.0658 95.8438 25.3662C94.2382 25.6666 87.8161 27.6692 81.4944 29.772C75.1726 31.7747 67.0446 34.9789 63.4322 36.7813C59.8197 38.5837 53.2973 42.3887 48.8821 45.1924C44.4669 48.0963 37.9444 53.3032 34.332 56.9079C30.7195 60.4126 25.7023 66.7209 23.0933 70.8264C20.4843 74.9318 17.1729 81.9411 15.6677 86.3469C13.1591 93.5564 12.858 95.7594 12.858 108.376C12.7577 120.092 13.1591 123.696 15.0656 130.405C16.2698 134.811 18.8788 141.62 20.8857 145.425C22.8926 149.43 23.6954 151.834 22.7922 150.932C21.7888 150.131 18.8788 146.527 16.2698 142.922C13.6608 139.317 10.1487 133.71 8.44284 130.405C6.83731 127.101 4.42902 120.993 3.12453 116.887C1.31831 110.98 0.816582 107.074 0.816582 98.3628C0.816582 89.6513 1.31831 85.7461 3.12453 79.8383C4.42902 75.7328 6.93766 69.4245 8.74388 65.8197C10.5501 62.215 14.0622 56.6075 16.5708 53.3032C18.9791 49.9988 24.3978 44.1911 28.4116 40.3861C32.5258 36.6812 39.4496 31.1739 43.8648 28.27C48.28 25.3662 55.3042 21.2608 59.4184 19.2581C63.5325 17.1553 70.7574 14.0512 75.4736 12.2488C80.1899 10.4464 88.5186 7.84299 94.0376 6.44114C99.5566 5.03928 108.889 3.2369 114.809 2.43584C120.629 1.63478 127.653 0.733584 130.363 0.433186C132.972 0.132789 142.404 0.132789 151.234 0.333054Z" fill="#00378a"/>
<path d="M12.9584 111.38C12.7577 113.082 12.557 111.881 12.557 108.877C12.557 105.873 12.7577 104.471 12.9584 105.873C13.1591 107.275 13.1591 109.678 12.9584 111.38Z" fill="#879CAD"/>
<path d="M116.515 18.5572C118.12 15.0525 121.131 10.7468 123.238 8.94444C125.245 7.14206 127.553 5.84033 128.255 6.14073C129.058 6.44113 130.363 6.74153 131.165 6.74153C131.968 6.74153 134.176 8.04325 135.982 9.64537C137.688 11.1474 141.2 15.4531 143.709 19.158C148.023 25.5664 148.425 25.8668 153.743 26.8682C156.754 27.469 163.577 29.0711 168.795 30.4729C174.013 31.8748 183.746 34.7786 190.369 36.9816C196.992 39.2846 204.117 41.888 206.224 42.8894C208.231 43.9908 212.044 47.5956 214.854 51.1002C218.065 55.239 222.48 59.1776 228.099 62.9159C232.715 66.02 241.244 71.6274 247.064 75.3323C252.884 79.1373 259.909 84.4444 262.618 87.2481C265.528 90.1519 268.338 94.0571 269.04 96.3601C269.743 98.5631 270.044 101.667 269.743 103.369C269.341 105.072 267.836 108.576 266.331 111.38C264.826 114.184 261.514 117.989 258.604 120.092C255.895 122.194 244.957 128.202 234.521 133.309C224.085 138.516 212.144 144.023 208.231 145.525C204.217 147.127 200.906 149.03 200.906 149.731C200.906 150.332 201.207 150.932 201.708 150.932C202.11 150.932 208.231 148.93 215.456 146.527C222.68 144.123 232.314 140.719 237.03 139.017C241.746 137.314 245.66 136.013 245.86 136.113C245.961 136.313 244.556 139.818 242.75 143.923C240.943 148.029 238.134 153.336 236.729 155.739C235.224 158.042 232.514 160.845 230.808 161.947C228.501 163.249 225.691 163.95 221.978 163.95C218.968 163.95 210.639 163.048 203.414 161.947C196.189 160.745 186.556 159.344 181.84 158.743C173.311 157.541 173.21 157.541 157.757 161.747C149.228 164.05 137.487 166.653 131.667 167.554C124.944 168.556 118.221 168.956 113.103 168.556C107.685 168.155 103.771 167.354 101.062 165.852C98.8541 164.751 95.9441 162.748 94.74 161.647C93.4355 160.445 91.2279 157.241 89.8231 154.437C88.4182 151.733 87.0134 147.227 86.1103 139.417L91.0272 144.524C93.8369 147.328 98.9545 151.033 102.567 152.935C106.179 154.737 112.501 157.04 116.615 158.042C121.934 159.444 127.653 159.944 135.982 159.944C142.404 159.944 152.539 159.243 158.56 158.342C164.48 157.541 174.013 155.238 179.833 153.235C185.653 151.333 195.989 147.227 202.912 144.223C209.836 141.119 217.964 137.314 220.975 135.712C223.985 134.01 227.999 131.306 229.905 129.504C231.712 127.802 234.12 124.598 235.123 122.395C236.127 120.192 237.03 116.587 237.03 114.384C237.03 112.181 235.926 108.176 234.622 105.372C233.417 102.668 231.009 98.8634 229.404 96.9609C227.798 95.0584 224.286 91.8542 221.476 89.8515C218.767 87.7487 213.248 84.5445 209.435 82.642C205.622 80.6393 199.2 78.136 195.387 76.9344C191.573 75.7328 184.85 74.2309 172.608 72.3283L184.85 66.821L184.984 66.7608C196.893 61.4132 197.098 61.3212 198.598 63.3164C199.601 64.6181 199.902 66.5206 198.899 72.829L204.217 73.8303C207.027 74.4311 211.944 75.833 214.954 76.9344C217.964 78.0359 223.885 80.7395 227.999 82.8422C232.113 85.0452 238.435 89.3509 241.846 92.5551C246.061 96.3601 249.172 100.265 250.878 103.87C252.985 108.376 253.286 110.178 252.784 114.184C252.282 117.588 252.383 118.89 253.386 118.89C253.988 118.99 255.895 117.889 257.5 116.687C259.106 115.385 261.514 112.181 262.819 109.377C264.023 106.674 265.127 103.069 265.127 101.367C265.127 99.6645 264.123 96.7607 262.919 94.9583C261.615 93.0558 257.601 88.9503 253.988 85.9464C250.276 82.8422 240.843 76.3336 232.916 71.327C225.089 66.3204 217.262 60.713 215.556 58.9106C213.85 57.0081 211.141 54.0041 209.435 52.2017C207.729 50.3993 204.518 48.4968 201.909 47.7959C199.3 46.9948 192.175 46.4941 184.85 46.5943C177.926 46.5943 167.992 47.0949 162.774 47.6957C157.556 48.2965 147.823 50.0989 141.2 51.701C132.47 53.9039 125.646 56.5074 116.415 61.0134C105.577 66.4205 103.771 67.0213 104.072 65.3191C104.373 64.2176 105.176 59.5114 106.079 54.8051C106.882 50.0989 108.889 41.4875 110.595 35.5797C112.2 29.5717 114.909 21.9617 116.515 18.5572Z" fill="#FDFDFD"/>
<path d="M120.027 24.7654C121.532 21.1606 123.84 16.7548 125.245 15.0525C126.65 13.2502 127.954 11.7482 128.155 11.7482C128.456 11.7482 129.56 12.1487 130.664 12.7495C131.767 13.3503 134.677 16.3543 141.501 25.2661L135.882 28.8708C132.771 30.8735 127.653 35.1792 124.543 38.3834C121.432 41.5877 117.518 46.4942 115.712 49.2979C113.605 52.7024 112.601 53.6036 112.601 52.3018C112.601 51.2004 113.705 45.9935 115.01 40.7866C116.314 35.5797 118.622 28.3702 120.027 24.7654Z" fill="#00378a"/>
</svg>
